<svg width="32" height="20" viewBox="0 0 32 20" fill="none" xmlns="http://www.w3.org/2000/svg">
<path d="M20.3254 2.1389H11.6732V17.861H20.3254V2.1389Z" fill="#FF5F00"/>
<path d="M12.2229 9.99994C12.2229 6.80552 13.7061 3.9722 15.9859 2.13888C14.3104 0.805551 12.1954 0 9.88816 0C4.4222 0 0 4.4722 0 9.99994C0 15.5277 4.4222 19.9999 9.88816 19.9999C12.1954 19.9999 14.3104 19.1943 15.9859 17.861C13.7061 16.0555 12.2229 13.1944 12.2229 9.99994Z" fill="#EB001B"/>
<path d="M32 9.99994C32 15.5277 27.5778 19.9999 22.1118 19.9999C19.8046 19.9999 17.6896 19.1943 16.0141 17.861C18.3214 16.0277 19.7771 13.1944 19.7771 9.99994C19.7771 6.80552 18.2939 3.9722 16.0141 2.13888C17.6896 0.805551 19.8046 0 22.1118 0C27.5778 0 32 4.49998 32 9.99994Z" fill="#F79E1B"/>
</svg>
