<svg width="32" height="32" viewBox="0 0 32 32" fill="none" xmlns="http://www.w3.org/2000/svg">
<path d="M25.0532 5.95995C24.1587 6.01107 23.2615 5.93929 22.3865 5.74662C21.3311 5.38522 20.344 4.84885 19.4665 4.15995C18.7159 3.6278 18.003 3.04418 17.3332 2.41329C17.0492 2.14803 16.6751 2.00049 16.2865 2.00049C15.8979 2.00049 15.5238 2.14803 15.2399 2.41329C14.5878 3.02423 13.9023 3.59845 13.1865 4.13329C12.3036 4.83124 11.3128 5.38066 10.2532 5.75995C9.25659 5.98514 8.23279 6.06596 7.2132 5.99995C6.37834 5.96538 5.54599 5.88526 4.71986 5.75995C4.51799 5.73003 4.31216 5.74106 4.11464 5.79239C3.91712 5.84372 3.73197 5.9343 3.57021 6.05873C3.40845 6.18316 3.2734 6.33889 3.17313 6.51663C3.07285 6.69437 3.00939 6.89049 2.98653 7.09329C2.91986 7.73329 2.74653 9.39995 2.66653 11.2533C2.55442 13.105 2.67085 14.9634 3.0132 16.7866C3.97859 19.8072 5.75413 22.5051 8.14653 24.5866C10.0481 26.3803 12.1101 27.9959 14.3065 29.4133C14.8952 29.8175 15.5925 30.0338 16.3065 30.0338C17.0206 30.0338 17.7179 29.8175 18.3065 29.4133C20.3865 27.959 22.3321 26.3213 24.1199 24.5199C26.3722 22.4232 28.0402 19.7765 28.9599 16.84" stroke="#1A202C" stroke-width="2.5" stroke-linecap="round" stroke-linejoin="round"/>
<path d="M14.6666 14.6667L18.48 18.48C18.5037 18.5059 18.5325 18.5265 18.5647 18.5406C18.5968 18.5548 18.6315 18.5621 18.6666 18.5621C18.7017 18.5621 18.7364 18.5548 18.7686 18.5406C18.8007 18.5265 18.8296 18.5059 18.8533 18.48L29.3333 8" stroke="#3563E9" stroke-width="2.5" stroke-linecap="round" stroke-linejoin="round"/>
</svg>
