<svg width="48" height="16" viewBox="0 0 48 16" fill="none" xmlns="http://www.w3.org/2000/svg">
<path d="M20.7993 15.769H16.911L19.3431 0.280759H23.2312L20.7993 15.769Z" fill="#00579F"/>
<path d="M34.8948 0.659398C34.1279 0.346014 32.9115 0 31.4073 0C27.5675 0 24.8635 2.10893 24.847 5.12407C24.8151 7.34864 26.7829 8.58421 28.2547 9.32595C29.759 10.0839 30.2704 10.5786 30.2704 11.2542C30.2551 12.2918 29.0548 12.7701 27.9354 12.7701C26.383 12.7701 25.5512 12.5235 24.2871 11.9462L23.7751 11.6988L23.231 15.1756C24.1429 15.6035 25.8231 15.9832 27.5675 15.9999C31.6474 15.9999 34.3035 13.9236 34.335 10.7105C34.3505 8.94731 33.3114 7.59632 31.0712 6.49236C29.7112 5.78369 28.8784 5.30584 28.8784 4.58074C28.8943 3.92157 29.5828 3.2464 31.1179 3.2464C32.382 3.21333 33.3108 3.52628 34.0143 3.83944L34.366 4.00391L34.8948 0.659398Z" fill="#00579F"/>
<path d="M40.0635 10.2821C40.3837 9.39232 41.6159 5.9486 41.6159 5.9486C41.5997 5.98167 41.9355 5.04239 42.1275 4.46578L42.3992 5.80034C42.3992 5.80034 43.1355 9.50773 43.2954 10.2821C42.6877 10.2821 40.8315 10.2821 40.0635 10.2821ZM44.8631 0.280759H41.8555C40.928 0.280759 40.2234 0.560636 39.8232 1.56583L34.0477 15.7688H38.1275C38.1275 15.7688 38.7992 13.8572 38.9436 13.4455C39.3912 13.4455 43.3601 13.4455 43.9359 13.4455C44.0475 13.9893 44.3998 15.7688 44.3998 15.7688H48L44.8631 0.280759Z" fill="#00579F"/>
<path d="M13.6633 0.280759L9.85539 10.8423L9.43928 8.70029C8.73527 6.2287 6.52736 3.54336 4.06344 2.20814L7.55137 15.7526H11.6631L17.7749 0.280759H13.6633Z" fill="#00579F"/>
<path d="M6.3199 0.280759H0.0640003L0 0.593705C4.87999 1.87899 8.11191 4.97713 9.43977 8.70094L8.07981 1.58269C7.85591 0.593486 7.16785 0.31339 6.3199 0.280759Z" fill="#F4A622"/>
</svg>
