<svg width="20" height="20" viewBox="0 0 20 20" fill="none" xmlns="http://www.w3.org/2000/svg">
<path fill-rule="evenodd" clip-rule="evenodd" d="M9.16673 2.65832C9.2243 2.47578 9.33855 2.31635 9.49291 2.20318C9.64726 2.09001 9.83367 2.02899 10.0251 2.02899C10.2165 2.02899 10.4029 2.09001 10.5572 2.20318C10.7116 2.31635 10.8258 2.47578 10.8834 2.65832L12.4334 7.42498H17.4334C17.6316 7.41749 17.8269 7.4751 17.9893 7.58902C18.1517 7.70293 18.2724 7.86689 18.3328 8.05583C18.3933 8.24478 18.3902 8.44832 18.3241 8.63536C18.258 8.82241 18.1325 8.98266 17.9667 9.09165L13.9084 12.0333L15.4584 16.8083C15.5197 16.9902 15.5212 17.1869 15.4628 17.3698C15.4044 17.5526 15.289 17.7119 15.1336 17.8246C14.9782 17.9372 14.7908 17.9972 14.5989 17.9957C14.4069 17.9943 14.2205 17.9316 14.0667 17.8167L10.0001 14.8417L5.94173 17.7917C5.78799 17.9066 5.60154 17.9693 5.4096 17.9707C5.21767 17.9722 5.03031 17.9122 4.87488 17.7996C4.71945 17.6869 4.60409 17.5276 4.54566 17.3448C4.48722 17.1619 4.48877 16.9652 4.55007 16.7833L6.10007 12.0083L2.04173 9.06665C1.87597 8.95766 1.75044 8.79741 1.68433 8.61036C1.61823 8.42332 1.61517 8.21978 1.67563 8.03083C1.73609 7.84189 1.85675 7.67793 2.01917 7.56402C2.18158 7.4501 2.37683 7.39249 2.57507 7.39998H7.57507L9.16673 2.65832Z" stroke="#90A3BF" stroke-width="1.5" stroke-linecap="round" stroke-linejoin="round"/>
</svg>
